<?xml version="1.0" encoding="utf-8"?>
<!-- Generator: Adobe Illustrator 25.3.0, SVG Export Plug-In . SVG Version: 6.00 Build 0)  -->
<svg version="1.1" id="Layer_1" xmlns="http://www.w3.org/2000/svg" xmlns:xlink="http://www.w3.org/1999/xlink" x="0px" y="0px"
	 viewBox="0 0 70 70" style="enable-background:new 0 0 70 70;" xml:space="preserve">
<style type="text/css">
	.st0{clip-path:url(#SVGID_2_);}
	.st1{fill:#CCFF00;}
	.st2{fill:#1CD8D2;}
</style>
<g>
	<defs>
		<rect id="SVGID_1_" x="13.8" y="1.9" width="167" height="66"/>
	</defs>
	<clipPath id="SVGID_2_">
		<use xlink:href="#SVGID_1_"  style="overflow:visible;"/>
	</clipPath>
	<g class="st0">
		<path class="st1" d="M23.2,47.3c-1.2,0-2.2-0.9-2.4-2.1L13.9,4.7c-0.1-0.7,0-1.3,0.4-1.8c0.4-0.5,1-0.9,1.6-1
			c1.3-0.2,2.6,0.7,2.8,2l6.8,40.4c0.1,0.7,0,1.3-0.4,1.8c-0.4,0.5-1,0.9-1.6,1C23.4,47.3,23.3,47.3,23.2,47.3z"/>
		<path class="st1" d="M34.7,28.6c-3.9,0-7.6,1.2-10.6,3.2l0.8,4.9c2.6-2.3,6-3.7,9.8-3.7c8.2,0,14.9,6.7,14.9,15
			c0,8.2-6.7,15-14.9,15c-8.2,0-14.9-6.7-14.9-15c0-1.1,0.1-2.2,0.3-3.2L18.7,37c-2.1,3.1-3.4,6.9-3.4,11c0,10.7,8.7,19.4,19.3,19.4
			S53.9,58.7,53.9,48S45.3,28.6,34.7,28.6z"/>
		<path class="st2" d="M33.6,59.3c1.5,0,2.6-1.2,2.6-2.6c0-1.5-1.2-2.6-2.6-2.6c-1.5,0-2.6,1.2-2.6,2.6C31,58.1,32.2,59.3,33.6,59.3
			z"/>
		<path class="st2" d="M41.8,56.2c1.5,0,2.6-1.2,2.6-2.6c0-1.5-1.2-2.6-2.6-2.6c-1.5,0-2.6,1.2-2.6,2.6
			C39.2,55.1,40.4,56.2,41.8,56.2z"/>
		<path class="st2" d="M35.4,50.6c1.5,0,2.6-1.2,2.6-2.6c0-1.5-1.2-2.6-2.6-2.6c-1.5,0-2.6,1.2-2.6,2.6
			C32.7,49.4,33.9,50.6,35.4,50.6z"/>
		<path class="st2" d="M27.2,53.3c1.5,0,2.6-1.2,2.6-2.6c0-1.5-1.2-2.6-2.6-2.6c-1.5,0-2.6,1.2-2.6,2.6
			C24.6,52.1,25.7,53.3,27.2,53.3z"/>
		<path class="st2" d="M43.5,47.9c1.5,0,2.6-1.2,2.6-2.6s-1.2-2.6-2.6-2.6c-1.5,0-2.6,1.2-2.6,2.6S42,47.9,43.5,47.9z"/>
		<path class="st2" d="M37.1,41.9c1.5,0,2.6-1.2,2.6-2.6c0-1.5-1.2-2.6-2.6-2.6s-2.6,1.2-2.6,2.6C34.5,40.7,35.7,41.9,37.1,41.9z"/>
		<path class="st2" d="M28.9,44.9c1.5,0,2.6-1.2,2.6-2.6c0-1.5-1.2-2.6-2.6-2.6s-2.6,1.2-2.6,2.6C26.2,43.7,27.4,44.9,28.9,44.9z"/>
	</g>
</g>
</svg>
