<?xml version="1.0" encoding="utf-8"?>
<!-- Generator: Adobe Illustrator 25.3.0, SVG Export Plug-In . SVG Version: 6.00 Build 0)  -->
<svg version="1.1" id="Layer_1" xmlns="http://www.w3.org/2000/svg" xmlns:xlink="http://www.w3.org/1999/xlink" x="0px" y="0px"
	 viewBox="0 0 19 18.6" style="enable-background:new 0 0 19 18.6;" xml:space="preserve">
<style type="text/css">
	.st0{fill:#00DACC;}
</style>
<g>
	<path class="st0" d="M19,9.3C18.9,4,14.5-0.2,9.2,0C4,0.2-0.1,4.5,0,9.7c0.1,3.8,2.4,7.1,5.7,8.5c0.5-0.6,0.9-1.7,1.1-2.3
		c0.2-0.5,0.4-1,0.6-1.4c1,0.3,2.3,0,3-0.8l0,0l0,0c-0.9-0.4-2-0.2-2.8,0.4c0.3-0.5,0.5-1.1,0.8-1.6c0.9,0.4,2.3,0.1,3-0.6l0,0l0,0
		c-0.8-0.4-2-0.3-2.8,0.3c0.3-0.5,0.6-1,0.9-1.4c1,0.3,2.3-0.1,3-0.9l0,0l0,0c-0.8-0.3-1.9-0.1-2.6,0.4c0,0,0.1-0.1,0.1-0.1
		c0.2-0.2,0.4-0.5,0.6-0.7C11.8,9.1,12.8,8,13,6.7l0,0h0c-1.2,0.2-2.3,1.4-2.5,2.7c-0.2,0.2-0.4,0.5-0.6,0.7
		c0.3-0.8,0.2-1.8-0.2-2.5l0,0l0,0C9,8.4,8.9,9.8,9.4,10.7c-0.3,0.4-0.6,0.9-0.9,1.3c0.2-0.9-0.1-2-0.8-2.6l0,0l0,0
		c-0.4,1-0.2,2.3,0.5,3C8,13,7.7,13.5,7.5,14c0.2-1-0.2-2.1-0.9-2.7l0,0l0,0c-0.4,1-0.1,2.4,0.7,3.1c-0.2,0.4-0.3,0.7-0.5,1.1
		c0,0-0.1-0.1-0.1-0.1c-0.2-0.1-0.5-0.2-0.8-0.3c-0.2-0.1-0.4-0.2-0.6-0.3c-0.9-0.3-0.7-0.7-1.2-1.5c0-0.1-0.4-0.4-0.5-0.5
		c0,0-0.2-0.2-0.4-0.4C3.1,12.2,3.1,12,3,11.8c0-0.3-0.1-0.4-0.4-0.5C1.4,10.9,1.9,9.2,2,9c0-0.2-0.1-0.6-0.2-0.8c0,0,0-0.1,0-0.1
		C1.7,7.6,1.9,7.3,2,7.1C2.2,7,2.7,6.7,2.8,6.6C2.9,6.4,3,6.3,3.1,6.1C3.3,6,3.7,5.6,4.3,5.3c0.4-0.2,0.4-0.7,0.6-0.9
		c0.2-0.3,0.6-0.3,0.9-0.5c0.1-0.1,0.3-0.2,0.5-0.3c0.6-0.6,1.5-0.9,2.3-1.1c0.6-0.1,1.2,0.1,1.8,0.2c0.1,0,0.2,0,0.2,0.1
		c1.3,0,2.9,0.3,3.5,0.9c0.4,0.4,0.5,0.7,0.6,1c0.1,0.3,0.2,0.6,0.4,0.8L15.4,6c0.2,0.4,0.3,0.8,0.2,1.2c-0.1,0.2-0.1,0.5,0,0.6
		c0.1,0.2,0.4,0.6,0.6,0.8c0.1,0.1,0.2,0.2,0.3,0.3c0.3,0.2,0.8,0.5,0.8,0.5c0,0,0,0.2-0.2,0.4c-0.2,0.2-0.7,0.5-0.7,0.5
		s0,0.1,0.1,0.3c0.1,0.1,0.2,0.3,0.2,0.4c0,0.2-0.4,0.3-0.3,0.4c0.1,0.2,0.3,0.2,0.2,0.4c-0.1,0.2-0.4,0.4-0.3,0.5
		c0,0.1,0.3,1.2-0.3,1.4c-0.4,0.1-1.6,0.2-2.2,0.2c-0.2,0-0.5,0.2-0.6,0.4c-0.1,0.2-0.2,0.4-0.2,0.7c-0.1,0.7-0.9,2.5-0.9,2.5
		s0,0-0.1,0.1C12,17.8,11.9,18,12,18.1c0,0.1,0.1,0.2,0.2,0.3c0.1,0.1,0.3,0.2,0.4,0.1C16.4,17.2,19.1,13.6,19,9.3z"/>
</g>
</svg>
